PathFileType  4	(X/Y/Z) C:\Users\antoi\Documents\MyRepositories\mobilecap\ResultsAnalysis
DataRate	CameraRate	NumFrames	NumMarkers	Units	OrigDataRate	OrigDataStartFrame	OrigNumFrames
100.0	100.0	4	51	mm	100.0	125	249
Frame#	Time	r_knee			r_shank_antsup			r_ankle			r_calc			r_5meta			r_toe			L_knee			L_shank_antsup			L_ankle			L_calc			L_5meta			L_toe			r_sh2			r_sh3			r_sh4			L_sh2			L_sh3			r_thigh1			r_thigh2			r_thigh3			r_thigh4			r_thigh5			L_thigh1			L_thigh2			L_thigh3			L_thigh4			r.ASIS			r.PSIS			L.ASIS			L.PSIS			C7			R_Shoulder			L_Shoulder			R_Sternum			L_Sternum			R_humerus			R_elbow_med			R_elbow_lat			R_forearm			R_wrist_radius			R_wrist_ulna			L_humerus			L_elbow_med			L_elbow_lat			L_forearm			L_wrist_radius			L_wrist_ulna			R_HJC			L_HJC			R_HJC_reg			L_HJC_reg			
		X1	Y1	Z1	X2	Y2	Z2	X3	Y3	Z3	X4	Y4	Z4	X5	Y5	Z5	X6	Y6	Z6	X7	Y7	Z7	X8	Y8	Z8	X9	Y9	Z9	X10	Y10	Z10	X11	Y11	Z11	X12	Y12	Z12	X13	Y13	Z13	X14	Y14	Z14	X15	Y15	Z15	X16	Y16	Z16	X17	Y17	Z17	X18	Y18	Z18	X19	Y19	Z19	X20	Y20	Z20	X21	Y21	Z21	X22	Y22	Z22	X23	Y23	Z23	X24	Y24	Z24	X25	Y25	Z25	X26	Y26	Z26	X27	Y27	Z27	X28	Y28	Z28	X29	Y29	Z29	X30	Y30	Z30	X31	Y31	Z31	X32	Y32	Z32	X33	Y33	Z33	X34	Y34	Z34	X35	Y35	Z35	X36	Y36	Z36	X37	Y37	Z37	X38	Y38	Z38	X39	Y39	Z39	X40	Y40	Z40	X41	Y41	Z41	X42	Y42	Z42	X43	Y43	Z43	X44	Y44	Z44	X45	Y45	Z45	X46	Y46	Z46	X47	Y47	Z47	X48	Y48	Z48	X49	Y49	Z49	X50	Y50	Z50	X51	Y51	Z51	

125	1.24000000	-285.28618	492.12065	-421.02442	-273.55814	422.27452	-395.48364	-266.97909	109.45183	-426.49261	-336.90688	84.75721	-472.46894	-171.55121	40.27865	-407.92300	-124.96649	65.11128	-458.86078	-312.96628	499.01618	-804.55528	-278.44165	436.36097	-816.53802	-312.04012	120.37312	-800.71149	-384.95770	99.80599	-747.78588	-228.99699	43.11138	-813.75181	-175.80446	69.05454	-766.05685	-265.80652	312.27466	-386.63708	-344.09626	415.85028	-418.45126	-343.65502	299.53822	-416.31360	-367.94327	444.92342	-820.89459	-365.35689	322.64749	-826.90641	-358.99114	797.61968	-455.04105	-301.13067	702.78751	-437.75042	-333.00724	664.48192	-391.74751	-445.47775	756.72245	-392.52942	-388.43792	654.04102	-388.48432	-398.59249	776.40320	-786.09881	-327.26174	658.59637	-805.14037	-499.77948	717.34424	-785.18041	-419.46733	600.41593	-799.84392	-395.22098	899.41862	-476.49218	-578.20332	932.63770	-524.64232	-426.11728	900.98700	-724.46818	-593.75130	932.47978	-630.59277	-377.52984	1371.24878	-578.55974	-333.69314	1326.43889	-457.01361	-350.48704	1348.93394	-720.17053	-280.72477	1265.87713	-573.99276	-285.19693	1265.83295	-620.03555	-434.90782	1251.84579	-267.69634	-535.31213	1171.44834	-242.23366	-490.87430	1227.93455	-203.90073	-397.55701	1161.57723	-223.31357	-316.55700	1084.92059	-249.74631	-320.49481	1068.21307	-208.73861	-384.89037	1295.27164	-827.29999	-576.57329	1194.86468	-909.13694	-543.33801	1235.33241	-961.42334	-448.11280	1181.87918	-930.26316	-369.74127	1107.19700	-877.71843	-370.42606	1086.69192	-908.09323	-467.72945	829.88555	-493.08961	-488.99764	834.04028	-692.20540	-465.15268	825.98409	-501.62692	-489.09798	825.73888	-664.82108	
126	1.25000000	-271.59850	465.90759	-421.21984	-255.35403	397.13592	-395.75294	-264.58077	92.41357	-433.89467	-337.45563	63.08546	-475.03925	-168.51047	38.61716	-408.87629	-122.54829	59.42733	-463.39046	-292.32471	476.44792	-806.79147	-256.40405	412.67125	-816.97579	-305.06346	102.31168	-796.02349	-382.24421	78.79840	-744.31418	-222.72422	37.47520	-812.51603	-170.20571	59.84299	-760.46859	-250.84307	286.85765	-386.54084	-326.79173	392.47573	-416.01546	-328.95944	276.18542	-414.20558	-345.32133	423.88708	-824.85795	-345.54190	301.32276	-830.20713	-349.58856	771.14107	-455.20028	-290.40476	677.01515	-437.15894	-321.74125	638.75884	-391.11225	-435.59207	729.65912	-391.56303	-377.40839	627.66256	-387.72870	-387.34809	751.27767	-786.26087	-312.24544	635.97430	-807.08475	-486.47293	688.88412	-785.44109	-402.56481	574.51683	-801.26644	-387.75442	871.42995	-476.70555	-571.55069	904.54046	-524.60887	-416.66450	873.13729	-725.00491	-585.68441	903.21650	-631.25763	-367.27761	1342.79657	-578.69540	-322.67096	1295.85586	-456.29564	-340.59079	1318.29530	-722.05512	-270.37171	1237.45549	-574.93078	-274.74298	1237.84389	-620.80865	-419.54432	1210.74001	-266.56287	-515.28088	1126.92440	-241.30835	-472.52043	1184.21087	-202.28877	-377.13906	1120.19096	-223.40951	-294.55766	1046.18065	-251.73039	-297.77720	1028.53574	-211.10076	-375.42341	1260.35328	-827.50763	-563.92856	1154.65238	-908.27121	-531.73098	1195.36444	-961.30197	-435.24908	1143.84368	-929.36938	-355.43360	1071.09702	-876.24953	-355.89466	1050.05613	-906.46124	-459.84368	801.72286	-493.29319	-480.13821	805.80631	-692.51422	-458.31857	799.14239	-501.84635	-480.00804	797.10395	-665.41773	
127	1.26000000	-252.22396	447.22675	-422.00535	-233.10466	378.19129	-397.60564	-269.35601	86.46440	-443.50582	-340.74546	53.72095	-479.62030	-170.28417	42.72662	-411.55520	-124.68136	60.88942	-467.71079	-271.42074	454.09827	-808.30015	-235.09558	388.94726	-816.57856	-309.76234	92.10714	-788.71877	-386.48405	62.17789	-739.50792	-223.49411	39.65800	-811.77146	-172.24817	60.29343	-756.48060	-236.28434	266.54925	-396.62656	-305.63512	379.36576	-415.28106	-315.79224	263.89022	-417.06930	-322.74187	404.60949	-828.79921	-329.55754	282.65786	-831.75501	-342.80107	746.79405	-454.65267	-279.23062	654.75936	-434.68551	-310.45968	615.73367	-390.02245	-427.03029	703.71120	-389.54650	-366.08865	603.11739	-387.48703	-376.54330	725.34222	-787.49389	-297.07799	613.12564	-808.25316	-473.74807	659.80567	-784.95390	-385.82514	548.76158	-802.23747	-383.37724	841.79058	-477.90323	-567.57964	878.46160	-524.88839	-407.68387	844.27851	-725.12519	-579.70638	874.10419	-631.86833	-357.44325	1314.10876	-578.93835	-311.46891	1265.54162	-455.44635	-330.81323	1287.47897	-723.93747	-259.91168	1208.25186	-576.09046	-264.02450	1209.35571	-621.58502	-403.20397	1168.46567	-265.15641	-493.03603	1081.24194	-240.21374	-452.06227	1139.28283	-201.21413	-354.55034	1078.13333	-223.99407	-270.49104	1006.80295	-254.19414	-272.90884	988.36486	-213.87200	-365.40465	1224.22461	-828.04830	-549.44846	1112.88354	-908.22492	-518.12046	1153.97435	-961.29763	-420.19483	1104.40609	-929.50736	-339.12330	1033.84142	-875.61356	-339.44977	1012.15423	-905.39685	-455.56056	773.15803	-493.49229	-473.88075	777.23570	-692.91056	-455.58412	774.90554	-502.07189	-474.03869	768.28034	-664.81907	
128	1.27000000	-222.71260	445.37833	-424.81688	-206.76897	375.52152	-401.95749	-269.86725	89.36007	-447.03567	-340.69904	55.71962	-482.13994	-170.91377	44.63931	-413.14267	-124.76124	61.61135	-468.90849	-248.37557	439.79909	-807.70290	-214.88204	373.06737	-815.49029	-315.25311	90.62696	-783.39985	-389.56896	56.19804	-737.16494	-225.39053	41.73046	-810.99829	-174.91377	62.54841	-754.93610	-218.75919	262.69619	-410.24809	-279.64771	383.28160	-419.28511	-299.25749	268.81182	-424.47346	-300.97797	393.64098	-831.12740	-316.84826	273.08011	-828.78394	-339.43544	730.99235	-453.95969	-268.18350	643.75131	-433.60309	-297.32931	602.18433	-390.21337	-419.47719	682.55056	-388.18910	-352.08432	585.96804	-388.98570	-366.45943	702.65595	-789.41604	-280.87051	595.62810	-807.44898	-461.37458	633.56253	-783.20456	-367.57010	527.93072	-801.17825	-382.52087	812.69686	-479.33287	-565.98951	856.46469	-527.44334	-400.67443	815.06071	-724.44910	-576.46733	847.30562	-633.79595	-347.93320	1285.66396	-579.42568	-300.26446	1236.45785	-453.72857	-321.27095	1257.84507	-726.27275	-249.36245	1178.37251	-577.81341	-253.09602	1180.79019	-622.25959	-385.39332	1126.22036	-264.07714	-468.56844	1035.23872	-238.91622	-429.03906	1093.88025	-200.39895	-329.73108	1035.94221	-225.11732	-244.54074	967.35647	-257.20286	-246.14281	948.00936	-217.06552	-354.34715	1188.53474	-830.45727	-533.05227	1070.06094	-908.36010	-502.50517	1111.61360	-961.03313	-402.90693	1064.02531	-930.26138	-320.66737	995.92345	-875.70562	-320.92589	973.49588	-904.89087	-456.00855	746.57104	-493.64443	-470.90516	749.38383	-693.36280	-456.85904	754.64802	-501.32258	-472.69932	740.79740	-662.12012	
